{
    "asset" : {
        "generator" : "Khronos glTF Blender I/O v1.3.48",
        "version" : "2.0"
    },
    "scene" : 0,
    "scenes" : [
        {
            "name" : "Playing Schene",
            "nodes" : [
                0
            ]
        }
    ],
    "nodes" : [
        {
            "mesh" : 0,
            "name" : "Knight.003"
        }
    ],
    "materials" : [
        {
            "doubleSided" : true,
            "emissiveFactor" : [
                0,
                0,
                0
            ],
            "name" : "Black Pieces",
            "pbrMetallicRoughness" : {
                "baseColorFactor" : [
                    0.021853217855095863,
                    0.021853217855095863,
                    0.021853217855095863,
                    1
                ],
                "metallicFactor" : 0,
                "roughnessFactor" : 0.41477271914482117
            }
        }
    ],
    "meshes" : [
        {
            "name" : "Cylinder.009",
            "primitives" : [
                {
                    "attributes" : {
                        "POSITION" : 0,
                        "NORMAL" : 1,
                        "TEXCOORD_0" : 2
                    },
                    "indices" : 3,
                    "material" : 0
                }
            ]
        }
    ],
    "accessors" : [
        {
            "bufferView" : 0,
            "componentType" : 5126,
            "count" : 978,
            "max" : [
                0.01494838297367096,
                0.0505027174949646,
                0.014948386698961258
            ],
            "min" : [
                -0.01494838297367096,
                5.587935447692871e-09,
                -0.014948379248380661
            ],
            "type" : "VEC3"
        },
        {
            "bufferView" : 1,
            "componentType" : 5126,
            "count" : 978,
            "type" : "VEC3"
        },
        {
            "bufferView" : 2,
            "componentType" : 5126,
            "count" : 978,
            "type" : "VEC2"
        },
        {
            "bufferView" : 3,
            "componentType" : 5123,
            "count" : 1533,
            "type" : "SCALAR"
        }
    ],
    "bufferViews" : [
        {
            "buffer" : 0,
            "byteLength" : 11736,
            "byteOffset" : 0
        },
        {
            "buffer" : 0,
            "byteLength" : 11736,
            "byteOffset" : 11736
        },
        {
            "buffer" : 0,
            "byteLength" : 7824,
            "byteOffset" : 23472
        },
        {
            "buffer" : 0,
            "byteLength" : 3066,
            "byteOffset" : 31296
        }
    ],
    "buffers" : [
        {
            "byteLength" : 34364,
            "uri" : "data:application/octet-stream;base64,"
        }
    ]
}
