{
    "asset" : {
        "generator" : "Khronos glTF Blender I/O v1.3.48",
        "version" : "2.0"
    },
    "scene" : 0,
    "scenes" : [
        {
            "name" : "Playing Schene",
            "nodes" : [
                0
            ]
        }
    ],
    "nodes" : [
        {
            "mesh" : 0,
            "name" : "King.001",
            "rotation" : [
                0,
                1,
                0,
                -1.6292068494294654e-07
            ],
            "scale" : [
                1.1247249841690063,
                1.1247249841690063,
                1.1247249841690063
            ],
            "translation" : [
                -0.20999999344348907,
                0,
                -0.030000001192092896
            ]
        }
    ],
    "materials" : [
        {
            "doubleSided" : true,
            "emissiveFactor" : [
                0,
                0,
                0
            ],
            "name" : "Black Pieces",
            "pbrMetallicRoughness" : {
                "baseColorFactor" : [
                    0,
                    0,
                    0,
                    1
                ],
                "metallicFactor" : 0,
                "roughnessFactor" : 0.41477271914482117
            }
        }
    ],
    "meshes" : [
        {
            "name" : "Cylinder.008",
            "primitives" : [
                {
                    "attributes" : {
                        "POSITION" : 0,
                        "NORMAL" : 1,
                        "TEXCOORD_0" : 2
                    },
                    "indices" : 3,
                    "material" : 0
                }
            ]
        }
    ],
    "accessors" : [
        {
            "bufferView" : 0,
            "componentType" : 5126,
            "count" : 1228,
            "max" : [
                0.01957121305167675,
                0.08945301175117493,
                0.01957106962800026
            ],
            "min" : [
                -0.01957121305167675,
                0,
                -0.01957135833799839
            ],
            "type" : "VEC3"
        },
        {
            "bufferView" : 1,
            "componentType" : 5126,
            "count" : 1228,
            "type" : "VEC3"
        },
        {
            "bufferView" : 2,
            "componentType" : 5126,
            "count" : 1228,
            "type" : "VEC2"
        },
        {
            "bufferView" : 3,
            "componentType" : 5123,
            "count" : 1866,
            "type" : "SCALAR"
        }
    ],
    "bufferViews" : [
        {
            "buffer" : 0,
            "byteLength" : 14736,
            "byteOffset" : 0
        },
        {
            "buffer" : 0,
            "byteLength" : 14736,
            "byteOffset" : 14736
        },
        {
            "buffer" : 0,
            "byteLength" : 9824,
            "byteOffset" : 29472
        },
        {
            "buffer" : 0,
            "byteLength" : 3732,
            "byteOffset" : 39296
        }
    ],
    "buffers" : [
        {
            "byteLength" : 43028,
            "uri" : "data:application/octet-stream;base64,"
        }
    ]
}
