{
    "asset" : {
        "generator" : "Khronos glTF Blender I/O v1.3.48",
        "version" : "2.0"
    },
    "scene" : 0,
    "scenes" : [
        {
            "name" : "Playing Schene",
            "nodes" : [
                0
            ]
        }
    ],
    "nodes" : [
        {
            "mesh" : 0,
            "name" : "Rook.003",
            "rotation" : [
                0,
                -0.9807853102684021,
                0,
                0.1950904279947281
            ],
            "translation" : [
                -0.20999999344348907,
                0,
                0.20999999344348907
            ]
        }
    ],
    "materials" : [
        {
            "doubleSided" : true,
            "emissiveFactor" : [
                0,
                0,
                0
            ],
            "name" : "Black Pieces",
            "pbrMetallicRoughness" : {
                "baseColorFactor" : [
                    0,
                    0,
                    0,
                    1
                ],
                "metallicFactor" : 0,
                "roughnessFactor" : 0.41477271914482117
            }
        }
    ],
    "meshes" : [
        {
            "name" : "Cylinder.010",
            "primitives" : [
                {
                    "attributes" : {
                        "POSITION" : 0,
                        "NORMAL" : 1,
                        "TEXCOORD_0" : 2
                    },
                    "indices" : 3,
                    "material" : 0
                }
            ]
        }
    ],
    "accessors" : [
        {
            "bufferView" : 0,
            "componentType" : 5126,
            "count" : 560,
            "max" : [
                0.019999999552965164,
                0.058014579117298126,
                0.02000000700354576
            ],
            "min" : [
                -0.019999999552965164,
                0,
                -0.02000000700354576
            ],
            "type" : "VEC3"
        },
        {
            "bufferView" : 1,
            "componentType" : 5126,
            "count" : 560,
            "type" : "VEC3"
        },
        {
            "bufferView" : 2,
            "componentType" : 5126,
            "count" : 560,
            "type" : "VEC2"
        },
        {
            "bufferView" : 3,
            "componentType" : 5123,
            "count" : 852,
            "type" : "SCALAR"
        }
    ],
    "bufferViews" : [
        {
            "buffer" : 0,
            "byteLength" : 6720,
            "byteOffset" : 0
        },
        {
            "buffer" : 0,
            "byteLength" : 6720,
            "byteOffset" : 6720
        },
        {
            "buffer" : 0,
            "byteLength" : 4480,
            "byteOffset" : 13440
        },
        {
            "buffer" : 0,
            "byteLength" : 1704,
            "byteOffset" : 17920
        }
    ],
    "buffers" : [
        {
            "byteLength" : 19624,
            "uri" : "data:application/octet-stream;base64,"
        }
    ]
}
