{
    "asset" : {
        "generator" : "Khronos glTF Blender I/O v1.4.40",
        "version" : "2.0"
    },
    "scene" : 0,
    "scenes" : [
        {
            "name" : "Playing Schene",
            "nodes" : [
                0,
                1,
                2,
                3,
                4,
                5,
                6,
                7,
                8,
                9
            ]
        }
    ],
    "nodes" : [
        {
            "name" : "Camera",
            "rotation" : [
                0.24616047739982605,
                -0.7346985936164856,
                0.5338742733001709,
                0.3385280668735504
            ],
            "translation" : [
                -0.7229520082473755,
                0.24209102988243103,
                -0.6128383874893188
            ]
        },
        {
            "mesh" : 0,
            "name" : "Chess Board"
        },
        {
            "name" : "Lamp Yellow",
            "rotation" : [
                0.16907575726509094,
                0.7558803558349609,
                -0.27217137813568115,
                0.570947527885437
            ],
            "translation" : [
                -0.3062359690666199,
                0.3550100326538086,
                -0.5033348202705383
            ]
        },
        {
            "name" : "Lamp Blue",
            "rotation" : [
                0.16907575726509094,
                0.7558803558349609,
                -0.27217137813568115,
                0.570947527885437
            ],
            "translation" : [
                0.2692989706993103,
                0.3161947429180145,
                0.4364703893661499
            ]
        },
        {
            "name" : "Camera Near",
            "rotation" : [
                -0.34674713015556335,
                0.598561704158783,
                -0.6471614837646484,
                -0.32042524218559265
            ],
            "translation" : [
                -0.30396267771720886,
                0.029939834028482437,
                -0.17927201092243195
            ]
        },
        {
            "name" : "Camera Far",
            "rotation" : [
                0.1901981681585312,
                -0.8098682165145874,
                0.38525107502937317,
                0.39939919114112854
            ],
            "translation" : [
                -1.0450756549835205,
                0.9390774369239807,
                -0.7106916308403015
            ]
        },
        {
            "mesh" : 1,
            "name" : "LettereBianchi",
            "scale" : [
                0.018580276519060135,
                0.1803354024887085,
                0.24048970639705658
            ],
            "translation" : [
                0.25885578989982605,
                0.0030684303492307663,
                -4.41819429397583e-05
            ]
        },
        {
            "mesh" : 2,
            "name" : "LettereNeri",
            "rotation" : [
                0,
                -0.9999830722808838,
                0,
                -0.005823622923344374
            ],
            "scale" : [
                0.018580276519060135,
                0.1803354024887085,
                0.24048970639705658
            ],
            "translation" : [
                -0.25894400477409363,
                0.0030684303492307663,
                -4.41819429397583e-05
            ]
        },
        {
            "mesh" : 3,
            "name" : "NumeriBianchi",
            "rotation" : [
                -0.7068845629692078,
                0,
                -0.7073289155960083,
                1.1519984610686151e-07
            ],
            "scale" : [
                0.018580276519060135,
                0.1803354024887085,
                0.24048970639705658
            ],
            "translation" : [
                -0.002094276249408722,
                0.0030684303492307663,
                0.25995609164237976
            ]
        },
        {
            "mesh" : 4,
            "name" : "NumeriNeri",
            "rotation" : [
                0,
                0.7083573937416077,
                0,
                0.7058539986610413
            ],
            "scale" : [
                0.018580276519060135,
                0.1803354024887085,
                0.24048970639705658
            ],
            "translation" : [
                -0.002094276249408722,
                0.0030684303492307663,
                -0.25836381316185
            ]
        }
    ],
    "materials" : [
        {
            "doubleSided" : true,
            "emissiveFactor" : [
                1,
                0.7838528752326965,
                0.270409494638443
            ],
            "name" : "White Squares",
            "pbrMetallicRoughness" : {
                "baseColorFactor" : [
                    0.8006526231765747,
                    0.572959840297699,
                    0.21783900260925293,
                    1
                ],
                "metallicFactor" : 0,
                "roughnessFactor" : 0.19930796325206757
            }
        },
        {
            "doubleSided" : true,
            "name" : "Black Squares",
            "pbrMetallicRoughness" : {
                "baseColorFactor" : [
                    1,
                    0.13081954419612885,
                    0.022672398015856743,
                    1
                ],
                "metallicFactor" : 0,
                "roughnessFactor" : 0
            }
        },
        {
            "doubleSided" : true,
            "name" : "Wood",
            "pbrMetallicRoughness" : {
                "baseColorTexture" : {
                    "index" : 0,
                    "texCoord" : 0
                },
                "metallicFactor" : 0,
                "roughnessFactor" : 0.03409089893102646
            }
        },
        {
            "alphaMode" : "BLEND",
            "doubleSided" : true,
            "emissiveFactor" : [
                1,
                1,
                1
            ],
            "name" : "Material",
            "pbrMetallicRoughness" : {
                "baseColorTexture" : {
                    "index" : 1,
                    "texCoord" : 0
                },
                "metallicFactor" : 0
            }
        },
        {
            "alphaMode" : "BLEND",
            "doubleSided" : true,
            "emissiveFactor" : [
                1,
                1,
                1
            ],
            "name" : "Material.001",
            "pbrMetallicRoughness" : {
                "baseColorTexture" : {
                    "index" : 2,
                    "texCoord" : 0
                },
                "metallicFactor" : 0
            }
        },
        {
            "alphaMode" : "BLEND",
            "doubleSided" : true,
            "emissiveFactor" : [
                1,
                1,
                1
            ],
            "name" : "Material.003",
            "pbrMetallicRoughness" : {
                "baseColorTexture" : {
                    "index" : 3,
                    "texCoord" : 0
                },
                "metallicFactor" : 0
            }
        },
        {
            "alphaMode" : "BLEND",
            "doubleSided" : true,
            "emissiveFactor" : [
                1,
                1,
                1
            ],
            "name" : "Material.002",
            "pbrMetallicRoughness" : {
                "baseColorTexture" : {
                    "index" : 4,
                    "texCoord" : 0
                },
                "metallicFactor" : 0
            }
        }
    ],
    "meshes" : [
        {
            "name" : "Chess Board",
            "primitives" : [
                {
                    "attributes" : {
                        "POSITION" : 0,
                        "NORMAL" : 1,
                        "TEXCOORD_0" : 2
                    },
                    "indices" : 3,
                    "material" : 0
                },
                {
                    "attributes" : {
                        "POSITION" : 4,
                        "NORMAL" : 5,
                        "TEXCOORD_0" : 6
                    },
                    "indices" : 7,
                    "material" : 1
                },
                {
                    "attributes" : {
                        "POSITION" : 8,
                        "NORMAL" : 9,
                        "TEXCOORD_0" : 10
                    },
                    "indices" : 11,
                    "material" : 2
                }
            ]
        },
        {
            "name" : "Plane",
            "primitives" : [
                {
                    "attributes" : {
                        "POSITION" : 12,
                        "NORMAL" : 13,
                        "TEXCOORD_0" : 14
                    },
                    "indices" : 15,
                    "material" : 3
                }
            ]
        },
        {
            "name" : "Plane.001",
            "primitives" : [
                {
                    "attributes" : {
                        "POSITION" : 16,
                        "NORMAL" : 17,
                        "TEXCOORD_0" : 18
                    },
                    "indices" : 15,
                    "material" : 4
                }
            ]
        },
        {
            "name" : "Plane.003",
            "primitives" : [
                {
                    "attributes" : {
                        "POSITION" : 19,
                        "NORMAL" : 20,
                        "TEXCOORD_0" : 21
                    },
                    "indices" : 15,
                    "material" : 5
                }
            ]
        },
        {
            "name" : "Plane.002",
            "primitives" : [
                {
                    "attributes" : {
                        "POSITION" : 22,
                        "NORMAL" : 23,
                        "TEXCOORD_0" : 24
                    },
                    "indices" : 15,
                    "material" : 6
                }
            ]
        }
    ],
    "textures" : [
        {
            "sampler" : 0,
            "source" : 0
        },
        {
            "sampler" : 0,
            "source" : 1
        },
        {
            "sampler" : 0,
            "source" : 2
        },
        {
            "sampler" : 0,
            "source" : 3
        },
        {
            "sampler" : 0,
            "source" : 4
        }
    ],
    "images" : [
        {
            "bufferView" : 12,
            "mimeType" : "image/png",
            "name" : "Figured_rosewood_pxr128"
        },
        {
            "bufferView" : 17,
            "mimeType" : "image/png",
            "name" : "lettereBianchi"
        },
        {
            "bufferView" : 21,
            "mimeType" : "image/png",
            "name" : "lettereNeri"
        },
        {
            "bufferView" : 25,
            "mimeType" : "image/png",
            "name" : "numeriBianchi"
        },
        {
            "bufferView" : 29,
            "mimeType" : "image/png",
            "name" : "numeriNeri"
        }
    ],
    "accessors" : [
        {
            "bufferView" : 0,
            "componentType" : 5126,
            "count" : 185,
            "max" : [
                0.23999999463558197,
                0,
                0.24000000953674316
            ],
            "min" : [
                -0.23999999463558197,
                -0.0009999999310821295,
                -0.23999997973442078
            ],
            "type" : "VEC3"
        },
        {
            "bufferView" : 1,
            "componentType" : 5126,
            "count" : 185,
            "type" : "VEC3"
        },
        {
            "bufferView" : 2,
            "componentType" : 5126,
            "count" : 185,
            "type" : "VEC2"
        },
        {
            "bufferView" : 3,
            "componentType" : 5123,
            "count" : 384,
            "type" : "SCALAR"
        },
        {
            "bufferView" : 4,
            "componentType" : 5126,
            "count" : 113,
            "max" : [
                0.23999999463558197,
                -0.0009999999310821295,
                0.24000000953674316
            ],
            "min" : [
                -0.23999999463558197,
                -0.0009999999310821295,
                -0.23999997973442078
            ],
            "type" : "VEC3"
        },
        {
            "bufferView" : 5,
            "componentType" : 5126,
            "count" : 113,
            "type" : "VEC3"
        },
        {
            "bufferView" : 6,
            "componentType" : 5126,
            "count" : 113,
            "type" : "VEC2"
        },
        {
            "bufferView" : 7,
            "componentType" : 5123,
            "count" : 192,
            "type" : "SCALAR"
        },
        {
            "bufferView" : 8,
            "componentType" : 5126,
            "count" : 168,
            "max" : [
                0.3229551911354065,
                0.0026864036917686462,
                0.3229551911354065
            ],
            "min" : [
                -0.3229551911354065,
                -0.04129639267921448,
                -0.3229551911354065
            ],
            "type" : "VEC3"
        },
        {
            "bufferView" : 9,
            "componentType" : 5126,
            "count" : 168,
            "type" : "VEC3"
        },
        {
            "bufferView" : 10,
            "componentType" : 5126,
            "count" : 168,
            "type" : "VEC2"
        },
        {
            "bufferView" : 11,
            "componentType" : 5123,
            "count" : 252,
            "type" : "SCALAR"
        },
        {
            "bufferView" : 13,
            "componentType" : 5126,
            "count" : 18,
            "max" : [
                1,
                0,
                1
            ],
            "min" : [
                -1,
                0,
                -1
            ],
            "type" : "VEC3"
        },
        {
            "bufferView" : 14,
            "componentType" : 5126,
            "count" : 18,
            "type" : "VEC3"
        },
        {
            "bufferView" : 15,
            "componentType" : 5126,
            "count" : 18,
            "type" : "VEC2"
        },
        {
            "bufferView" : 16,
            "componentType" : 5123,
            "count" : 48,
            "type" : "SCALAR"
        },
        {
            "bufferView" : 18,
            "componentType" : 5126,
            "count" : 18,
            "max" : [
                1,
                0,
                1
            ],
            "min" : [
                -1,
                0,
                -1
            ],
            "type" : "VEC3"
        },
        {
            "bufferView" : 19,
            "componentType" : 5126,
            "count" : 18,
            "type" : "VEC3"
        },
        {
            "bufferView" : 20,
            "componentType" : 5126,
            "count" : 18,
            "type" : "VEC2"
        },
        {
            "bufferView" : 22,
            "componentType" : 5126,
            "count" : 18,
            "max" : [
                1,
                0,
                1
            ],
            "min" : [
                -1,
                0,
                -1
            ],
            "type" : "VEC3"
        },
        {
            "bufferView" : 23,
            "componentType" : 5126,
            "count" : 18,
            "type" : "VEC3"
        },
        {
            "bufferView" : 24,
            "componentType" : 5126,
            "count" : 18,
            "type" : "VEC2"
        },
        {
            "bufferView" : 26,
            "componentType" : 5126,
            "count" : 18,
            "max" : [
                1,
                0,
                1
            ],
            "min" : [
                -1,
                0,
                -1
            ],
            "type" : "VEC3"
        },
        {
            "bufferView" : 27,
            "componentType" : 5126,
            "count" : 18,
            "type" : "VEC3"
        },
        {
            "bufferView" : 28,
            "componentType" : 5126,
            "count" : 18,
            "type" : "VEC2"
        }
    ],
    "bufferViews" : [
        {
            "buffer" : 0,
            "byteLength" : 2220,
            "byteOffset" : 0
        },
        {
            "buffer" : 0,
            "byteLength" : 2220,
            "byteOffset" : 2220
        },
        {
            "buffer" : 0,
            "byteLength" : 1480,
            "byteOffset" : 4440
        },
        {
            "buffer" : 0,
            "byteLength" : 768,
            "byteOffset" : 5920
        },
        {
            "buffer" : 0,
            "byteLength" : 1356,
            "byteOffset" : 6688
        },
        {
            "buffer" : 0,
            "byteLength" : 1356,
            "byteOffset" : 8044
        },
        {
            "buffer" : 0,
            "byteLength" : 904,
            "byteOffset" : 9400
        },
        {
            "buffer" : 0,
            "byteLength" : 384,
            "byteOffset" : 10304
        },
        {
            "buffer" : 0,
            "byteLength" : 2016,
            "byteOffset" : 10688
        },
        {
            "buffer" : 0,
            "byteLength" : 2016,
            "byteOffset" : 12704
        },
        {
            "buffer" : 0,
            "byteLength" : 1344,
            "byteOffset" : 14720
        },
        {
            "buffer" : 0,
            "byteLength" : 504,
            "byteOffset" : 16064
        },
        {
            "buffer" : 0,
            "byteLength" : 537964,
            "byteOffset" : 16568
        },
        {
            "buffer" : 0,
            "byteLength" : 216,
            "byteOffset" : 554532
        },
        {
            "buffer" : 0,
            "byteLength" : 216,
            "byteOffset" : 554748
        },
        {
            "buffer" : 0,
            "byteLength" : 144,
            "byteOffset" : 554964
        },
        {
            "buffer" : 0,
            "byteLength" : 96,
            "byteOffset" : 555108
        },
        {
            "buffer" : 0,
            "byteLength" : 29456,
            "byteOffset" : 555204
        },
        {
            "buffer" : 0,
            "byteLength" : 216,
            "byteOffset" : 584660
        },
        {
            "buffer" : 0,
            "byteLength" : 216,
            "byteOffset" : 584876
        },
        {
            "buffer" : 0,
            "byteLength" : 144,
            "byteOffset" : 585092
        },
        {
            "buffer" : 0,
            "byteLength" : 41099,
            "byteOffset" : 585236
        },
        {
            "buffer" : 0,
            "byteLength" : 216,
            "byteOffset" : 626336
        },
        {
            "buffer" : 0,
            "byteLength" : 216,
            "byteOffset" : 626552
        },
        {
            "buffer" : 0,
            "byteLength" : 144,
            "byteOffset" : 626768
        },
        {
            "buffer" : 0,
            "byteLength" : 42852,
            "byteOffset" : 626912
        },
        {
            "buffer" : 0,
            "byteLength" : 216,
            "byteOffset" : 669764
        },
        {
            "buffer" : 0,
            "byteLength" : 216,
            "byteOffset" : 669980
        },
        {
            "buffer" : 0,
            "byteLength" : 144,
            "byteOffset" : 670196
        },
        {
            "buffer" : 0,
            "byteLength" : 42361,
            "byteOffset" : 670340
        }
    ],
    "samplers" : [
        {
            "magFilter" : 9729,
            "minFilter" : 9986
        }
    ],
    "buffers" : [
        {
            "byteLength" : 712704,
            "uri" : "data:application/octet-stream;base64,"
        }
    ]
}
