{
    "asset" : {
        "generator" : "Khronos glTF Blender I/O v1.3.48",
        "version" : "2.0"
    },
    "scene" : 0,
    "scenes" : [
        {
            "name" : "Playing Schene",
            "nodes" : [
                0
            ]
        }
    ],
    "nodes" : [
        {
            "mesh" : 0,
            "name" : "Chess Board"
        }
    ],
    "materials" : [
        {
            "doubleSided" : true,
            "emissiveFactor" : [
                0,
                0,
                0
            ],
            "name" : "White Squares",
            "pbrMetallicRoughness" : {
                "metallicFactor" : 0
            }
        },
        {
            "doubleSided" : true,
            "emissiveFactor" : [
                0,
                0,
                0
            ],
            "name" : "Wood",
            "pbrMetallicRoughness" : {
                "baseColorTexture" : {
                    "index" : 0,
                    "texCoord" : 0
                },
                "metallicFactor" : 0,
                "roughnessFactor" : 0.03409089893102646
            }
        },
        {
            "doubleSided" : true,
            "emissiveFactor" : [
                0,
                0,
                0
            ],
            "name" : "Black Squares",
            "pbrMetallicRoughness" : {
                "baseColorFactor" : [
                    0,
                    0,
                    0,
                    1
                ],
                "metallicFactor" : 0
            }
        }
    ],
    "meshes" : [
        {
            "name" : "Chess Board",
            "primitives" : [
                {
                    "attributes" : {
                        "POSITION" : 0,
                        "NORMAL" : 1,
                        "TEXCOORD_0" : 2
                    },
                    "indices" : 3,
                    "material" : 0
                },
                {
                    "attributes" : {
                        "POSITION" : 4,
                        "NORMAL" : 5,
                        "TEXCOORD_0" : 6
                    },
                    "indices" : 7,
                    "material" : 1
                },
                {
                    "attributes" : {
                        "POSITION" : 8,
                        "NORMAL" : 9,
                        "TEXCOORD_0" : 10
                    },
                    "indices" : 11,
                    "material" : 2
                }
            ]
        }
    ],
    "textures" : [
        {
            "source" : 0
        }
    ],
    "images" : [
        {
            "bufferView" : 8,
            "mimeType" : "image/png",
            "name" : "Figured_rosewood_pxr128"
        }
    ],
    "accessors" : [
        {
            "bufferView" : 0,
            "componentType" : 5126,
            "count" : 185,
            "max" : [
                0.23999999463558197,
                0,
                0.24000000953674316
            ],
            "min" : [
                -0.23999999463558197,
                -0.0009999999310821295,
                -0.23999997973442078
            ],
            "type" : "VEC3"
        },
        {
            "bufferView" : 1,
            "componentType" : 5126,
            "count" : 185,
            "type" : "VEC3"
        },
        {
            "bufferView" : 2,
            "componentType" : 5126,
            "count" : 185,
            "type" : "VEC2"
        },
        {
            "bufferView" : 3,
            "componentType" : 5123,
            "count" : 384,
            "type" : "SCALAR"
        },
        {
            "bufferView" : 4,
            "componentType" : 5126,
            "count" : 168,
            "max" : [
                0.3229551911354065,
                0.0026864036917686462,
                0.3229551911354065
            ],
            "min" : [
                -0.3229551911354065,
                -0.04129639267921448,
                -0.3229551911354065
            ],
            "type" : "VEC3"
        },
        {
            "bufferView" : 5,
            "componentType" : 5126,
            "count" : 168,
            "type" : "VEC3"
        },
        {
            "bufferView" : 6,
            "componentType" : 5126,
            "count" : 168,
            "type" : "VEC2"
        },
        {
            "bufferView" : 7,
            "componentType" : 5123,
            "count" : 252,
            "type" : "SCALAR"
        },
        {
            "bufferView" : 9,
            "componentType" : 5126,
            "count" : 113,
            "max" : [
                0.23999999463558197,
                -0.0009999999310821295,
                0.24000000953674316
            ],
            "min" : [
                -0.23999999463558197,
                -0.0009999999310821295,
                -0.23999997973442078
            ],
            "type" : "VEC3"
        },
        {
            "bufferView" : 10,
            "componentType" : 5126,
            "count" : 113,
            "type" : "VEC3"
        },
        {
            "bufferView" : 11,
            "componentType" : 5126,
            "count" : 113,
            "type" : "VEC2"
        },
        {
            "bufferView" : 12,
            "componentType" : 5123,
            "count" : 192,
            "type" : "SCALAR"
        }
    ],
    "bufferViews" : [
        {
            "buffer" : 0,
            "byteLength" : 2220,
            "byteOffset" : 0
        },
        {
            "buffer" : 0,
            "byteLength" : 2220,
            "byteOffset" : 2220
        },
        {
            "buffer" : 0,
            "byteLength" : 1480,
            "byteOffset" : 4440
        },
        {
            "buffer" : 0,
            "byteLength" : 768,
            "byteOffset" : 5920
        },
        {
            "buffer" : 0,
            "byteLength" : 2016,
            "byteOffset" : 6688
        },
        {
            "buffer" : 0,
            "byteLength" : 2016,
            "byteOffset" : 8704
        },
        {
            "buffer" : 0,
            "byteLength" : 1344,
            "byteOffset" : 10720
        },
        {
            "buffer" : 0,
            "byteLength" : 504,
            "byteOffset" : 12064
        },
        {
            "buffer" : 0,
            "byteLength" : 537964,
            "byteOffset" : 12568
        },
        {
            "buffer" : 0,
            "byteLength" : 1356,
            "byteOffset" : 550532
        },
        {
            "buffer" : 0,
            "byteLength" : 1356,
            "byteOffset" : 551888
        },
        {
            "buffer" : 0,
            "byteLength" : 904,
            "byteOffset" : 553244
        },
        {
            "buffer" : 0,
            "byteLength" : 384,
            "byteOffset" : 554148
        }
    ],
    "buffers" : [
        {
            "byteLength" : 554532,
            "uri" : "data:application/octet-stream;base64,"
        }
    ]
}
