{
    "asset" : {
        "generator" : "Khronos glTF Blender I/O v1.4.40",
        "version" : "2.0"
    },
    "scene" : 0,
    "scenes" : [
        {
            "name" : "Playing Schene",
            "nodes" : [
                0,
                1,
                2,
                3,
                4
            ]
        }
    ],
    "nodes" : [
        {
            "mesh" : 0,
            "name" : "Chess Board"
        },
        {
            "mesh" : 1,
            "name" : "LettereBianchi",
            "scale" : [
                0.018580276519060135,
                0.1803354024887085,
                0.24048970639705658
            ],
            "translation" : [
                0.25885578989982605,
                0.0030684303492307663,
                -4.41819429397583e-05
            ]
        },
        {
            "mesh" : 2,
            "name" : "LettereNeri",
            "rotation" : [
                0,
                -0.9999830722808838,
                0,
                -0.005823622923344374
            ],
            "scale" : [
                0.018580276519060135,
                0.1803354024887085,
                0.24048970639705658
            ],
            "translation" : [
                -0.25894400477409363,
                0.0030684303492307663,
                -4.41819429397583e-05
            ]
        },
        {
            "mesh" : 3,
            "name" : "NumeriBianchi",
            "rotation" : [
                -0.7068845629692078,
                0,
                -0.7073289155960083,
                1.1519984610686151e-07
            ],
            "scale" : [
                0.018580276519060135,
                0.1803354024887085,
                0.24048970639705658
            ],
            "translation" : [
                -0.002094276249408722,
                0.0030684303492307663,
                0.25995609164237976
            ]
        },
        {
            "mesh" : 4,
            "name" : "NumeriNeri",
            "rotation" : [
                0,
                0.7083573937416077,
                0,
                0.7058539986610413
            ],
            "scale" : [
                0.018580276519060135,
                0.1803354024887085,
                0.24048970639705658
            ],
            "translation" : [
                -0.002094276249408722,
                0.0030684303492307663,
                -0.25836381316185
            ]
        }
    ],
    "materials" : [
        {
            "doubleSided" : true,
            "name" : "White Squares",
            "pbrMetallicRoughness" : {
                "metallicFactor" : 0
            }
        },
        {
            "doubleSided" : true,
            "name" : "Black Squares",
            "pbrMetallicRoughness" : {
                "baseColorFactor" : [
                    0,
                    0,
                    0,
                    1
                ],
                "metallicFactor" : 0
            }
        },
        {
            "doubleSided" : true,
            "name" : "Wood",
            "pbrMetallicRoughness" : {
                "baseColorTexture" : {
                    "index" : 0,
                    "texCoord" : 0
                },
                "metallicFactor" : 0,
                "roughnessFactor" : 0.03409089893102646
            }
        },
        {
            "alphaMode" : "BLEND",
            "doubleSided" : true,
            "emissiveFactor" : [
                1,
                1,
                1
            ],
            "name" : "Material",
            "pbrMetallicRoughness" : {
                "baseColorTexture" : {
                    "index" : 1,
                    "texCoord" : 0
                },
                "metallicFactor" : 0
            }
        },
        {
            "alphaMode" : "BLEND",
            "doubleSided" : true,
            "emissiveFactor" : [
                1,
                1,
                1
            ],
            "name" : "Material.001",
            "pbrMetallicRoughness" : {
                "baseColorTexture" : {
                    "index" : 2,
                    "texCoord" : 0
                },
                "metallicFactor" : 0
            }
        },
        {
            "alphaMode" : "BLEND",
            "doubleSided" : true,
            "emissiveFactor" : [
                1,
                1,
                1
            ],
            "name" : "Material.003",
            "pbrMetallicRoughness" : {
                "baseColorTexture" : {
                    "index" : 3,
                    "texCoord" : 0
                },
                "metallicFactor" : 0
            }
        },
        {
            "alphaMode" : "BLEND",
            "doubleSided" : true,
            "emissiveFactor" : [
                1,
                1,
                1
            ],
            "name" : "Material.002",
            "pbrMetallicRoughness" : {
                "baseColorTexture" : {
                    "index" : 4,
                    "texCoord" : 0
                },
                "metallicFactor" : 0
            }
        }
    ],
    "meshes" : [
        {
            "name" : "Chess Board",
            "primitives" : [
                {
                    "attributes" : {
                        "POSITION" : 0,
                        "NORMAL" : 1,
                        "TANGENT" : 2,
                        "TEXCOORD_0" : 3
                    },
                    "indices" : 4,
                    "material" : 0
                },
                {
                    "attributes" : {
                        "POSITION" : 5,
                        "NORMAL" : 6,
                        "TANGENT" : 7,
                        "TEXCOORD_0" : 8
                    },
                    "indices" : 9,
                    "material" : 1
                },
                {
                    "attributes" : {
                        "POSITION" : 10,
                        "NORMAL" : 11,
                        "TANGENT" : 12,
                        "TEXCOORD_0" : 13
                    },
                    "indices" : 14,
                    "material" : 2
                }
            ]
        },
        {
            "name" : "Plane",
            "primitives" : [
                {
                    "attributes" : {
                        "POSITION" : 15,
                        "NORMAL" : 16,
                        "TANGENT" : 17,
                        "TEXCOORD_0" : 18
                    },
                    "indices" : 19,
                    "material" : 3
                }
            ]
        },
        {
            "name" : "Plane.001",
            "primitives" : [
                {
                    "attributes" : {
                        "POSITION" : 20,
                        "NORMAL" : 21,
                        "TANGENT" : 22,
                        "TEXCOORD_0" : 23
                    },
                    "indices" : 19,
                    "material" : 4
                }
            ]
        },
        {
            "name" : "Plane.003",
            "primitives" : [
                {
                    "attributes" : {
                        "POSITION" : 24,
                        "NORMAL" : 25,
                        "TANGENT" : 26,
                        "TEXCOORD_0" : 27
                    },
                    "indices" : 19,
                    "material" : 5
                }
            ]
        },
        {
            "name" : "Plane.002",
            "primitives" : [
                {
                    "attributes" : {
                        "POSITION" : 28,
                        "NORMAL" : 29,
                        "TANGENT" : 30,
                        "TEXCOORD_0" : 31
                    },
                    "indices" : 19,
                    "material" : 6
                }
            ]
        }
    ],
    "textures" : [
        {
            "sampler" : 0,
            "source" : 0
        },
        {
            "sampler" : 0,
            "source" : 1
        },
        {
            "sampler" : 0,
            "source" : 2
        },
        {
            "sampler" : 0,
            "source" : 3
        },
        {
            "sampler" : 0,
            "source" : 4
        }
    ],
    "images" : [
        {
            "bufferView" : 15,
            "mimeType" : "image/png",
            "name" : "Figured_rosewood_pxr128"
        },
        {
            "bufferView" : 21,
            "mimeType" : "image/png",
            "name" : "lettereBianchi"
        },
        {
            "bufferView" : 26,
            "mimeType" : "image/png",
            "name" : "lettereNeri"
        },
        {
            "bufferView" : 31,
            "mimeType" : "image/png",
            "name" : "numeriBianchi"
        },
        {
            "bufferView" : 36,
            "mimeType" : "image/png",
            "name" : "numeriNeri"
        }
    ],
    "accessors" : [
        {
            "bufferView" : 0,
            "componentType" : 5126,
            "count" : 186,
            "max" : [
                0.23999999463558197,
                0,
                0.24000000953674316
            ],
            "min" : [
                -0.23999999463558197,
                -0.0009999999310821295,
                -0.23999997973442078
            ],
            "type" : "VEC3"
        },
        {
            "bufferView" : 1,
            "componentType" : 5126,
            "count" : 186,
            "type" : "VEC3"
        },
        {
            "bufferView" : 2,
            "componentType" : 5126,
            "count" : 186,
            "type" : "VEC4"
        },
        {
            "bufferView" : 3,
            "componentType" : 5126,
            "count" : 186,
            "type" : "VEC2"
        },
        {
            "bufferView" : 4,
            "componentType" : 5123,
            "count" : 384,
            "type" : "SCALAR"
        },
        {
            "bufferView" : 5,
            "componentType" : 5126,
            "count" : 114,
            "max" : [
                0.23999999463558197,
                -0.0009999999310821295,
                0.24000000953674316
            ],
            "min" : [
                -0.23999999463558197,
                -0.0009999999310821295,
                -0.23999997973442078
            ],
            "type" : "VEC3"
        },
        {
            "bufferView" : 6,
            "componentType" : 5126,
            "count" : 114,
            "type" : "VEC3"
        },
        {
            "bufferView" : 7,
            "componentType" : 5126,
            "count" : 114,
            "type" : "VEC4"
        },
        {
            "bufferView" : 8,
            "componentType" : 5126,
            "count" : 114,
            "type" : "VEC2"
        },
        {
            "bufferView" : 9,
            "componentType" : 5123,
            "count" : 192,
            "type" : "SCALAR"
        },
        {
            "bufferView" : 10,
            "componentType" : 5126,
            "count" : 168,
            "max" : [
                0.3229551911354065,
                0.0026864036917686462,
                0.3229551911354065
            ],
            "min" : [
                -0.3229551911354065,
                -0.04129639267921448,
                -0.3229551911354065
            ],
            "type" : "VEC3"
        },
        {
            "bufferView" : 11,
            "componentType" : 5126,
            "count" : 168,
            "type" : "VEC3"
        },
        {
            "bufferView" : 12,
            "componentType" : 5126,
            "count" : 168,
            "type" : "VEC4"
        },
        {
            "bufferView" : 13,
            "componentType" : 5126,
            "count" : 168,
            "type" : "VEC2"
        },
        {
            "bufferView" : 14,
            "componentType" : 5123,
            "count" : 252,
            "type" : "SCALAR"
        },
        {
            "bufferView" : 16,
            "componentType" : 5126,
            "count" : 18,
            "max" : [
                1,
                0,
                1
            ],
            "min" : [
                -1,
                0,
                -1
            ],
            "type" : "VEC3"
        },
        {
            "bufferView" : 17,
            "componentType" : 5126,
            "count" : 18,
            "type" : "VEC3"
        },
        {
            "bufferView" : 18,
            "componentType" : 5126,
            "count" : 18,
            "type" : "VEC4"
        },
        {
            "bufferView" : 19,
            "componentType" : 5126,
            "count" : 18,
            "type" : "VEC2"
        },
        {
            "bufferView" : 20,
            "componentType" : 5123,
            "count" : 48,
            "type" : "SCALAR"
        },
        {
            "bufferView" : 22,
            "componentType" : 5126,
            "count" : 18,
            "max" : [
                1,
                0,
                1
            ],
            "min" : [
                -1,
                0,
                -1
            ],
            "type" : "VEC3"
        },
        {
            "bufferView" : 23,
            "componentType" : 5126,
            "count" : 18,
            "type" : "VEC3"
        },
        {
            "bufferView" : 24,
            "componentType" : 5126,
            "count" : 18,
            "type" : "VEC4"
        },
        {
            "bufferView" : 25,
            "componentType" : 5126,
            "count" : 18,
            "type" : "VEC2"
        },
        {
            "bufferView" : 27,
            "componentType" : 5126,
            "count" : 18,
            "max" : [
                1,
                0,
                1
            ],
            "min" : [
                -1,
                0,
                -1
            ],
            "type" : "VEC3"
        },
        {
            "bufferView" : 28,
            "componentType" : 5126,
            "count" : 18,
            "type" : "VEC3"
        },
        {
            "bufferView" : 29,
            "componentType" : 5126,
            "count" : 18,
            "type" : "VEC4"
        },
        {
            "bufferView" : 30,
            "componentType" : 5126,
            "count" : 18,
            "type" : "VEC2"
        },
        {
            "bufferView" : 32,
            "componentType" : 5126,
            "count" : 18,
            "max" : [
                1,
                0,
                1
            ],
            "min" : [
                -1,
                0,
                -1
            ],
            "type" : "VEC3"
        },
        {
            "bufferView" : 33,
            "componentType" : 5126,
            "count" : 18,
            "type" : "VEC3"
        },
        {
            "bufferView" : 34,
            "componentType" : 5126,
            "count" : 18,
            "type" : "VEC4"
        },
        {
            "bufferView" : 35,
            "componentType" : 5126,
            "count" : 18,
            "type" : "VEC2"
        }
    ],
    "bufferViews" : [
        {
            "buffer" : 0,
            "byteLength" : 2232,
            "byteOffset" : 0
        },
        {
            "buffer" : 0,
            "byteLength" : 2232,
            "byteOffset" : 2232
        },
        {
            "buffer" : 0,
            "byteLength" : 2976,
            "byteOffset" : 4464
        },
        {
            "buffer" : 0,
            "byteLength" : 1488,
            "byteOffset" : 7440
        },
        {
            "buffer" : 0,
            "byteLength" : 768,
            "byteOffset" : 8928
        },
        {
            "buffer" : 0,
            "byteLength" : 1368,
            "byteOffset" : 9696
        },
        {
            "buffer" : 0,
            "byteLength" : 1368,
            "byteOffset" : 11064
        },
        {
            "buffer" : 0,
            "byteLength" : 1824,
            "byteOffset" : 12432
        },
        {
            "buffer" : 0,
            "byteLength" : 912,
            "byteOffset" : 14256
        },
        {
            "buffer" : 0,
            "byteLength" : 384,
            "byteOffset" : 15168
        },
        {
            "buffer" : 0,
            "byteLength" : 2016,
            "byteOffset" : 15552
        },
        {
            "buffer" : 0,
            "byteLength" : 2016,
            "byteOffset" : 17568
        },
        {
            "buffer" : 0,
            "byteLength" : 2688,
            "byteOffset" : 19584
        },
        {
            "buffer" : 0,
            "byteLength" : 1344,
            "byteOffset" : 22272
        },
        {
            "buffer" : 0,
            "byteLength" : 504,
            "byteOffset" : 23616
        },
        {
            "buffer" : 0,
            "byteLength" : 537964,
            "byteOffset" : 24120
        },
        {
            "buffer" : 0,
            "byteLength" : 216,
            "byteOffset" : 562084
        },
        {
            "buffer" : 0,
            "byteLength" : 216,
            "byteOffset" : 562300
        },
        {
            "buffer" : 0,
            "byteLength" : 288,
            "byteOffset" : 562516
        },
        {
            "buffer" : 0,
            "byteLength" : 144,
            "byteOffset" : 562804
        },
        {
            "buffer" : 0,
            "byteLength" : 96,
            "byteOffset" : 562948
        },
        {
            "buffer" : 0,
            "byteLength" : 29456,
            "byteOffset" : 563044
        },
        {
            "buffer" : 0,
            "byteLength" : 216,
            "byteOffset" : 592500
        },
        {
            "buffer" : 0,
            "byteLength" : 216,
            "byteOffset" : 592716
        },
        {
            "buffer" : 0,
            "byteLength" : 288,
            "byteOffset" : 592932
        },
        {
            "buffer" : 0,
            "byteLength" : 144,
            "byteOffset" : 593220
        },
        {
            "buffer" : 0,
            "byteLength" : 41099,
            "byteOffset" : 593364
        },
        {
            "buffer" : 0,
            "byteLength" : 216,
            "byteOffset" : 634464
        },
        {
            "buffer" : 0,
            "byteLength" : 216,
            "byteOffset" : 634680
        },
        {
            "buffer" : 0,
            "byteLength" : 288,
            "byteOffset" : 634896
        },
        {
            "buffer" : 0,
            "byteLength" : 144,
            "byteOffset" : 635184
        },
        {
            "buffer" : 0,
            "byteLength" : 42852,
            "byteOffset" : 635328
        },
        {
            "buffer" : 0,
            "byteLength" : 216,
            "byteOffset" : 678180
        },
        {
            "buffer" : 0,
            "byteLength" : 216,
            "byteOffset" : 678396
        },
        {
            "buffer" : 0,
            "byteLength" : 288,
            "byteOffset" : 678612
        },
        {
            "buffer" : 0,
            "byteLength" : 144,
            "byteOffset" : 678900
        },
        {
            "buffer" : 0,
            "byteLength" : 42361,
            "byteOffset" : 679044
        }
    ],
    "samplers" : [
        {
            "magFilter" : 9729,
            "minFilter" : 9986
        }
    ],
    "buffers" : [
        {
            "byteLength" : 721408,
            "uri" : "data:application/octet-stream;base64,"
        }
    ]
}
